<mxfile host="app.diagrams.net" agent="Mozilla/5.0 (Windows NT 10.0; Win64; x64) AppleWebKit/537.36 (KHTML, like Gecko) Chrome/130.0.0.0 Safari/537.36 Edg/130.0.0.0" version="24.8.3">
  <diagram name="Página-1" id="A-V--XsspcCzu0u9TLLc">
    <mxGraphModel dx="2194" dy="1165" grid="1" gridSize="10" guides="1" tooltips="1" connect="1" arrows="1" fold="1" page="1" pageScale="1" pageWidth="827" pageHeight="1169" math="0" shadow="0">
      <root>
        <mxCell id="0" />
        <mxCell id="1" parent="0" />
        <mxCell id="hONxpYcpvomNpsaaPsFR-1" value="&lt;font style=&quot;font-size: 18px;&quot;&gt;&lt;span style=&quot;font-family: Aptos; font-weight: 700; background-color: rgb(255, 255, 0);&quot;&gt;EAC&lt;/span&gt;&lt;br&gt;&lt;/font&gt;&lt;div&gt;&lt;font size=&quot;3&quot;&gt;&lt;br&gt;&lt;/font&gt;&lt;div&gt;&lt;font size=&quot;3&quot;&gt;Outra Equipe&lt;/font&gt;&lt;/div&gt;&lt;/div&gt;" style="rounded=1;whiteSpace=wrap;html=1;fillColor=#dae8fc;strokeColor=#6c8ebf;align=left;" vertex="1" parent="1">
          <mxGeometry x="60" width="120" height="80" as="geometry" />
        </mxCell>
        <mxCell id="hONxpYcpvomNpsaaPsFR-3" value="&lt;p style=&quot;language:pt-BR;margin-top:0pt;margin-bottom:0pt;margin-left:0in;&lt;br/&gt;text-align:left;direction:ltr;unicode-bidi:embed;mso-line-break-override:none;&lt;br/&gt;word-break:normal;punctuation-wrap:hanging&quot;&gt;&lt;font style=&quot;font-size: 18px;&quot;&gt;&lt;span style=&quot;font-family: Aptos; background: yellow; font-weight: bold;&quot;&gt;JAVA&lt;/span&gt;&lt;span style=&quot;font-family: Aptos;&quot;&gt; –&lt;br&gt;Envia ao Banco e Recebe novamente os dados&lt;/span&gt;&lt;/font&gt;&lt;/p&gt;" style="rounded=1;whiteSpace=wrap;html=1;fillColor=#dae8fc;strokeColor=#6c8ebf;align=left;" vertex="1" parent="1">
          <mxGeometry x="250" width="230" height="100" as="geometry" />
        </mxCell>
        <mxCell id="hONxpYcpvomNpsaaPsFR-4" value="&lt;p style=&quot;language:pt-BR;margin-top:0pt;margin-bottom:0pt;margin-left:0in;&lt;br/&gt;text-align:left;direction:ltr;unicode-bidi:embed;mso-line-break-override:none;&lt;br/&gt;word-break:normal;punctuation-wrap:hanging&quot;&gt;&lt;font face=&quot;Aptos&quot; style=&quot;font-size: 18px;&quot;&gt;Envir à Prefeitura e SEFAZ. SEFAZ retorna a informação ao Java.&lt;/font&gt;&lt;/p&gt;" style="rounded=1;whiteSpace=wrap;html=1;fillColor=#f0a30a;strokeColor=#BD7000;align=left;fontColor=#000000;verticalAlign=middle;fontFamily=Helvetica;fontSize=12;" vertex="1" parent="1">
          <mxGeometry x="250" y="170" width="230" height="100" as="geometry" />
        </mxCell>
        <mxCell id="hONxpYcpvomNpsaaPsFR-7" value="" style="shape=flexArrow;endArrow=classic;html=1;rounded=1;entryX=-0.002;entryY=0.487;entryDx=0;entryDy=0;entryPerimeter=0;fillColor=#e51400;strokeColor=#B20000;" edge="1" parent="1">
          <mxGeometry width="50" height="50" relative="1" as="geometry">
            <mxPoint x="181.38" y="40.15" as="sourcePoint" />
            <mxPoint x="249.99999999999997" y="39.84999999999999" as="targetPoint" />
          </mxGeometry>
        </mxCell>
        <mxCell id="hONxpYcpvomNpsaaPsFR-10" value="" style="shape=flexArrow;endArrow=classic;html=1;rounded=1;fillColor=#e51400;strokeColor=#B20000;" edge="1" parent="1">
          <mxGeometry width="50" height="50" relative="1" as="geometry">
            <mxPoint x="340" y="100" as="sourcePoint" />
            <mxPoint x="337" y="170" as="targetPoint" />
          </mxGeometry>
        </mxCell>
        <mxCell id="hONxpYcpvomNpsaaPsFR-11" value="" style="shape=flexArrow;endArrow=classic;html=1;rounded=1;entryX=0.661;entryY=0.98;entryDx=0;entryDy=0;entryPerimeter=0;exitX=0.635;exitY=0;exitDx=0;exitDy=0;exitPerimeter=0;fillColor=#e51400;strokeColor=#B20000;" edge="1" parent="1" source="hONxpYcpvomNpsaaPsFR-4" target="hONxpYcpvomNpsaaPsFR-3">
          <mxGeometry width="50" height="50" relative="1" as="geometry">
            <mxPoint x="430" y="170" as="sourcePoint" />
            <mxPoint x="497" y="100" as="targetPoint" />
          </mxGeometry>
        </mxCell>
        <mxCell id="hONxpYcpvomNpsaaPsFR-12" value="&lt;p style=&quot;language:pt-BR;margin-top:0pt;margin-bottom:0pt;margin-left:0in;&lt;br/&gt;text-align:left;direction:ltr;unicode-bidi:embed;mso-line-break-override:none;&lt;br/&gt;word-break:normal;punctuation-wrap:hanging&quot;&gt;&lt;span style=&quot;font-family: Aptos; background: yellow; font-weight: bold;&quot;&gt;&lt;font style=&quot;font-size: 18px;&quot;&gt;SYBASE:&lt;/font&gt;&lt;/span&gt;&lt;/p&gt;&lt;p style=&quot;language:pt-BR;margin-top:0pt;margin-bottom:0pt;margin-left:0in;&lt;br/&gt;text-align:left;direction:ltr;unicode-bidi:embed;mso-line-break-override:none;&lt;br/&gt;word-break:normal;punctuation-wrap:hanging&quot;&gt;&lt;span style=&quot;font-family: Aptos; background: yellow; font-weight: bold;&quot;&gt;&lt;font size=&quot;3&quot;&gt;ZAFNFCE&lt;/font&gt;&lt;/span&gt;&lt;/p&gt;" style="rounded=1;whiteSpace=wrap;html=1;fillColor=#dae8fc;strokeColor=#6c8ebf;align=left;" vertex="1" parent="1">
          <mxGeometry x="540" width="230" height="100" as="geometry" />
        </mxCell>
        <mxCell id="hONxpYcpvomNpsaaPsFR-14" value="" style="shape=flexArrow;endArrow=classic;html=1;rounded=1;entryX=0;entryY=0.32;entryDx=0;entryDy=0;entryPerimeter=0;fillColor=#e51400;strokeColor=#B20000;" edge="1" parent="1">
          <mxGeometry width="50" height="50" relative="1" as="geometry">
            <mxPoint x="480" y="20" as="sourcePoint" />
            <mxPoint x="540" y="22" as="targetPoint" />
          </mxGeometry>
        </mxCell>
        <mxCell id="hONxpYcpvomNpsaaPsFR-15" value="" style="shape=flexArrow;endArrow=classic;html=1;rounded=1;entryX=1;entryY=0.63;entryDx=0;entryDy=0;entryPerimeter=0;fillColor=#e51400;strokeColor=#B20000;" edge="1" parent="1" target="hONxpYcpvomNpsaaPsFR-3">
          <mxGeometry width="50" height="50" relative="1" as="geometry">
            <mxPoint x="540" y="60" as="sourcePoint" />
            <mxPoint x="490" y="100" as="targetPoint" />
          </mxGeometry>
        </mxCell>
        <mxCell id="hONxpYcpvomNpsaaPsFR-16" value="&lt;p style=&quot;language:pt-BR;margin-top:0pt;margin-bottom:0pt;margin-left:0in;&lt;br/&gt;text-align:left;direction:ltr;unicode-bidi:embed;mso-line-break-override:none;&lt;br/&gt;word-break:normal;punctuation-wrap:hanging&quot;&gt;&lt;span style=&quot;font-family: Aptos; background: yellow; font-weight: bold;&quot;&gt;&lt;font style=&quot;font-size: 18px;&quot;&gt;SYBASE: BASE&lt;br&gt;VAREJO&lt;/font&gt;&lt;/span&gt;&lt;/p&gt;&lt;p style=&quot;language:pt-BR;margin-top:0pt;margin-bottom:0pt;margin-left:0in;&lt;br/&gt;text-align:left;direction:ltr;unicode-bidi:embed;mso-line-break-override:none;&lt;br/&gt;word-break:normal;punctuation-wrap:hanging&quot;&gt;&lt;span style=&quot;font-family: Aptos; background: yellow; font-weight: bold;&quot;&gt;&lt;font size=&quot;3&quot;&gt;ZAFNFCE_R0&lt;/font&gt;&lt;/span&gt;&lt;/p&gt;&lt;p style=&quot;language:pt-BR;margin-top:0pt;margin-bottom:0pt;margin-left:0in;&lt;br/&gt;text-align:left;direction:ltr;unicode-bidi:embed;mso-line-break-override:none;&lt;br/&gt;word-break:normal;punctuation-wrap:hanging&quot;&gt;&lt;/p&gt;&lt;p style=&quot;language:pt-BR;margin-top:0pt;margin-bottom:0pt;margin-left:0in;&lt;br/&gt;text-align:left;direction:ltr;unicode-bidi:embed;mso-line-break-override:none;&lt;br/&gt;word-break:normal;punctuation-wrap:hanging&quot;&gt;&lt;br&gt;&lt;/p&gt;&lt;p style=&quot;language:pt-BR;margin-top:0pt;margin-bottom:0pt;margin-left:0in;&lt;br/&gt;text-align:left;direction:ltr;unicode-bidi:embed;mso-line-break-override:none;&lt;br/&gt;word-break:normal;punctuation-wrap:hanging&quot;&gt;&lt;/p&gt;&lt;p&gt;&lt;/p&gt;&lt;p style=&quot;language:pt-BR;margin-top:0pt;margin-bottom:0pt;margin-left:0in;&lt;br/&gt;text-align:left;direction:ltr;unicode-bidi:embed;mso-line-break-override:none;&lt;br/&gt;word-break:normal;punctuation-wrap:hanging&quot;&gt;&lt;span style=&quot;font-family: Aptos;&quot;&gt;&lt;font size=&quot;3&quot; style=&quot;&quot;&gt;“SELECT”, “COUNT” (BANCO DE DADOS)&lt;/font&gt;&lt;/span&gt;&lt;/p&gt;" style="rounded=1;whiteSpace=wrap;html=1;fillColor=#dae8fc;strokeColor=#6c8ebf;align=left;" vertex="1" parent="1">
          <mxGeometry x="820" y="10" width="283" height="160" as="geometry" />
        </mxCell>
        <mxCell id="hONxpYcpvomNpsaaPsFR-17" value="&lt;p style=&quot;language:pt-BR;margin-top:0pt;margin-bottom:0pt;margin-left:0in;&lt;br/&gt;text-align:left;direction:ltr;unicode-bidi:embed;mso-line-break-override:none;&lt;br/&gt;word-break:normal;punctuation-wrap:hanging&quot;&gt;&lt;span style=&quot;font-family: Aptos; background: yellow; font-weight: bold;&quot;&gt;&lt;font style=&quot;font-size: 18px;&quot;&gt;PI (PROCESS INTEGRATION) (SAP)&lt;/font&gt;&lt;/span&gt;&lt;/p&gt;&lt;p style=&quot;language:pt-BR;margin-top:0pt;margin-bottom:0pt;margin-left:0in;&lt;br/&gt;text-align:left;direction:ltr;unicode-bidi:embed;mso-line-break-override:none;&lt;br/&gt;word-break:normal;punctuation-wrap:hanging&quot;&gt;&lt;span style=&quot;font-family: Aptos; background: yellow; font-weight: bold;&quot;&gt;&lt;font style=&quot;font-size: 18px;&quot;&gt;&lt;br&gt;&lt;/font&gt;&lt;/span&gt;&lt;/p&gt;&lt;p style=&quot;language:pt-BR;margin-top:0pt;margin-bottom:0pt;margin-left:0in;&lt;br/&gt;text-align:left;direction:ltr;unicode-bidi:embed;mso-line-break-override:none;&lt;br/&gt;word-break:normal;punctuation-wrap:hanging&quot;&gt;&lt;/p&gt;&lt;p style=&quot;language:pt-BR;margin-top:0pt;margin-bottom:0pt;margin-left:0in;&lt;br/&gt;text-align:left;direction:ltr;unicode-bidi:embed;mso-line-break-override:none;&lt;br/&gt;word-break:normal;punctuation-wrap:hanging&quot;&gt;&lt;span style=&quot;font-family: Aptos; font-weight: bold;&quot;&gt;&lt;font size=&quot;3&quot;&gt;“Carteiro”&lt;/font&gt;&lt;/span&gt;&lt;/p&gt;&lt;p style=&quot;language:pt-BR;margin-top:0pt;margin-bottom:0pt;margin-left:0in;&lt;br/&gt;text-align:left;direction:ltr;unicode-bidi:embed;mso-line-break-override:none;&lt;br/&gt;word-break:normal;punctuation-wrap:hanging&quot;&gt;&lt;span style=&quot;font-family: Aptos; font-weight: bold;&quot;&gt;&lt;font size=&quot;3&quot;&gt;&lt;br&gt;&lt;/font&gt;&lt;/span&gt;&lt;/p&gt;&lt;p style=&quot;language:pt-BR;margin-top:0pt;margin-bottom:0pt;margin-left:0in;&lt;br/&gt;text-align:left;direction:ltr;unicode-bidi:embed;mso-line-break-override:none;&lt;br/&gt;word-break:normal;punctuation-wrap:hanging&quot;&gt;&lt;/p&gt;&lt;p style=&quot;language:pt-BR;margin-top:0pt;margin-bottom:0pt;margin-left:0in;&lt;br/&gt;text-align:left;direction:ltr;unicode-bidi:embed;mso-line-break-override:none;&lt;br/&gt;word-break:normal;punctuation-wrap:hanging&quot;&gt;&lt;span style=&quot;font-family: Aptos;&quot;&gt;&lt;font size=&quot;3&quot;&gt;RODAR PROCEDURES NO BASE VAREJO&lt;/font&gt;&lt;/span&gt;&lt;/p&gt;&lt;p style=&quot;language:pt-BR;margin-top:0pt;margin-bottom:0pt;margin-left:0in;&lt;br/&gt;text-align:left;direction:ltr;unicode-bidi:embed;mso-line-break-override:none;&lt;br/&gt;word-break:normal;punctuation-wrap:hanging&quot;&gt;&lt;/p&gt;&lt;p style=&quot;language:pt-BR;margin-top:0pt;margin-bottom:0pt;margin-left:0in;&lt;br/&gt;text-align:left;direction:ltr;unicode-bidi:embed;mso-line-break-override:none;&lt;br/&gt;word-break:normal;punctuation-wrap:hanging&quot;&gt;&lt;br&gt;&lt;br&gt;&lt;/p&gt;&lt;p style=&quot;language:pt-BR;margin-top:0pt;margin-bottom:0pt;margin-left:0in;&lt;br/&gt;text-align:left;direction:ltr;unicode-bidi:embed;mso-line-break-override:none;&lt;br/&gt;word-break:normal;punctuation-wrap:hanging&quot;&gt;&lt;span style=&quot;font-family: Aptos;&quot;&gt;&lt;font size=&quot;3&quot;&gt;EXEMPLOS PROCEDURES: SAP153, SAP153A,&lt;br&gt;SAP153B&lt;/font&gt;&lt;/span&gt;&lt;/p&gt;" style="rounded=1;whiteSpace=wrap;html=1;fillColor=#dae8fc;strokeColor=#6c8ebf;align=left;" vertex="1" parent="1">
          <mxGeometry x="1160" width="483" height="260" as="geometry" />
        </mxCell>
        <mxCell id="hONxpYcpvomNpsaaPsFR-18" value="" style="shape=flexArrow;endArrow=classic;html=1;rounded=1;entryX=0;entryY=0.316;entryDx=0;entryDy=0;entryPerimeter=0;fillColor=#e51400;strokeColor=#B20000;" edge="1" parent="1" target="hONxpYcpvomNpsaaPsFR-16">
          <mxGeometry width="50" height="50" relative="1" as="geometry">
            <mxPoint x="770" y="59.5" as="sourcePoint" />
            <mxPoint x="813" y="60.5" as="targetPoint" />
          </mxGeometry>
        </mxCell>
        <mxCell id="hONxpYcpvomNpsaaPsFR-19" value="" style="shape=flexArrow;endArrow=classic;html=1;rounded=1;fillColor=#e51400;strokeColor=#B20000;" edge="1" parent="1">
          <mxGeometry width="50" height="50" relative="1" as="geometry">
            <mxPoint x="1103" y="89.25" as="sourcePoint" />
            <mxPoint x="1160" y="89" as="targetPoint" />
          </mxGeometry>
        </mxCell>
        <mxCell id="hONxpYcpvomNpsaaPsFR-21" value="&lt;p style=&quot;language:pt-BR;margin-top:0pt;margin-bottom:0pt;margin-left:0in;&lt;br/&gt;text-align:left;direction:ltr;unicode-bidi:embed;mso-line-break-override:none;&lt;br/&gt;word-break:normal;punctuation-wrap:hanging&quot;&gt;&lt;span style=&quot;font-family: Aptos; background: yellow; font-weight: bold;&quot;&gt;&lt;font style=&quot;font-size: 18px;&quot;&gt;SAP&lt;br&gt;ECC - ERP EM SI.&lt;/font&gt;&lt;/span&gt;&lt;/p&gt;&lt;p style=&quot;language:pt-BR;margin-top:0pt;margin-bottom:0pt;margin-left:0in;&lt;br/&gt;text-align:left;direction:ltr;unicode-bidi:embed;mso-line-break-override:none;&lt;br/&gt;word-break:normal;punctuation-wrap:hanging&quot;&gt;&lt;span style=&quot;font-family: Aptos; background: yellow; font-weight: bold;&quot;&gt;&lt;font style=&quot;font-size: 18px;&quot;&gt;&lt;br&gt;&lt;/font&gt;&lt;/span&gt;&lt;/p&gt;&lt;p style=&quot;language:pt-BR;margin-top:0pt;margin-bottom:0pt;margin-left:0in;&lt;br/&gt;text-align:left;direction:ltr;unicode-bidi:embed;mso-line-break-override:none;&lt;br/&gt;word-break:normal;punctuation-wrap:hanging&quot;&gt;&lt;/p&gt;&lt;p style=&quot;language:pt-BR;margin-top:0pt;margin-bottom:0pt;margin-left:0in;&lt;br/&gt;text-align:left;direction:ltr;unicode-bidi:embed;mso-line-break-override:none;&lt;br/&gt;word-break:normal;punctuation-wrap:hanging&quot;&gt;&lt;span style=&quot;font-family: Aptos;&quot;&gt;&lt;font size=&quot;3&quot;&gt;TIPO DE MENSAGEM: Z_SD_NFCE_CRIAR&lt;/font&gt;&lt;/span&gt;&lt;/p&gt;&lt;p style=&quot;language:pt-BR;margin-top:0pt;margin-bottom:0pt;margin-left:0in;&lt;br/&gt;text-align:left;direction:ltr;unicode-bidi:embed;mso-line-break-override:none;&lt;br/&gt;word-break:normal;punctuation-wrap:hanging&quot;&gt;&lt;/p&gt;&lt;p style=&quot;language:pt-BR;margin-top:0pt;margin-bottom:0pt;margin-left:0in;&lt;br/&gt;text-align:left;direction:ltr;unicode-bidi:embed;mso-line-break-override:none;&lt;br/&gt;word-break:normal;punctuation-wrap:hanging&quot;&gt;&lt;span style=&quot;font-family: Aptos;&quot;&gt;&lt;font size=&quot;3&quot;&gt;TRANSAÇÕES:&lt;/font&gt;&lt;/span&gt;&lt;/p&gt;&lt;p style=&quot;language:pt-BR;margin-top:0pt;margin-bottom:0pt;margin-left:0in;&lt;br/&gt;text-align:left;direction:ltr;unicode-bidi:embed;mso-line-break-override:none;&lt;br/&gt;word-break:normal;punctuation-wrap:hanging&quot;&gt;&lt;span style=&quot;font-family: Aptos;&quot;&gt;&lt;font size=&quot;3&quot;&gt;&lt;br&gt;&lt;/font&gt;&lt;/span&gt;&lt;/p&gt;&lt;p style=&quot;language:pt-BR;margin-top:0pt;margin-bottom:0pt;margin-left:0in;&lt;br/&gt;text-align:left;direction:ltr;unicode-bidi:embed;mso-line-break-override:none;&lt;br/&gt;word-break:normal;punctuation-wrap:hanging&quot;&gt;&lt;/p&gt;&lt;p style=&quot;language:pt-BR;margin-top:0pt;margin-bottom:0pt;margin-left:0in;&lt;br/&gt;text-align:left;direction:ltr;unicode-bidi:embed;mso-line-break-override:none;&lt;br/&gt;word-break:normal;punctuation-wrap:hanging&quot;&gt;&lt;span style=&quot;font-family: Aptos;&quot;&gt;&lt;font size=&quot;3&quot;&gt;&lt;b&gt;ZSD138: &lt;/b&gt;MANIPULAÇÃO DE DADOS DE DOC.&lt;br&gt;FISCAL&lt;/font&gt;&lt;/span&gt;&lt;/p&gt;&lt;p style=&quot;language:pt-BR;margin-top:0pt;margin-bottom:0pt;margin-left:0in;&lt;br/&gt;text-align:left;direction:ltr;unicode-bidi:embed;mso-line-break-override:none;&lt;br/&gt;word-break:normal;punctuation-wrap:hanging&quot;&gt;&lt;span style=&quot;font-family: Aptos;&quot;&gt;&lt;font size=&quot;3&quot;&gt;&lt;b&gt;ZSD777: &lt;/b&gt;REPROCESSAMENTO DE IDOC&lt;br&gt;Z_SD_NFCE_CRIAR&lt;/font&gt;&lt;/span&gt;&lt;/p&gt;&lt;p style=&quot;language:pt-BR;margin-top:0pt;margin-bottom:0pt;margin-left:0in;&lt;br/&gt;text-align:left;direction:ltr;unicode-bidi:embed;mso-line-break-override:none;&lt;br/&gt;word-break:normal;punctuation-wrap:hanging&quot;&gt;&lt;/p&gt;&lt;p&gt;&lt;/p&gt;&lt;p style=&quot;language:pt-BR;margin-top:0pt;margin-bottom:0pt;margin-left:0in;&lt;br/&gt;text-align:left;direction:ltr;unicode-bidi:embed;mso-line-break-override:none;&lt;br/&gt;word-break:normal;punctuation-wrap:hanging&quot;&gt;&lt;span style=&quot;font-family: Aptos;&quot;&gt;&lt;font size=&quot;3&quot;&gt;&lt;b&gt;ZSD778: &lt;/b&gt;REPROCESSAMENTO DE IDOC&lt;br&gt;Z_SD_NFSE_CRIAR&lt;/font&gt;&lt;/span&gt;&lt;/p&gt;" style="rounded=1;whiteSpace=wrap;html=1;fillColor=#dae8fc;strokeColor=#6c8ebf;align=left;" vertex="1" parent="1">
          <mxGeometry x="1710" width="483" height="260" as="geometry" />
        </mxCell>
        <mxCell id="hONxpYcpvomNpsaaPsFR-22" value="" style="shape=flexArrow;endArrow=classic;html=1;rounded=1;fillColor=#e51400;strokeColor=#B20000;" edge="1" parent="1">
          <mxGeometry width="50" height="50" relative="1" as="geometry">
            <mxPoint x="1643" y="110.25" as="sourcePoint" />
            <mxPoint x="1710" y="112" as="targetPoint" />
          </mxGeometry>
        </mxCell>
        <mxCell id="hONxpYcpvomNpsaaPsFR-23" value="&lt;p style=&quot;language:pt-BR;margin-top:0pt;margin-bottom:0pt;margin-left:0in;&lt;br/&gt;text-align:left;direction:ltr;unicode-bidi:embed;mso-line-break-override:none;&lt;br/&gt;word-break:normal;punctuation-wrap:hanging&quot;&gt;&lt;span style=&quot;font-family: Aptos; background: yellow; font-weight: bold;&quot;&gt;&lt;font style=&quot;font-size: 18px;&quot;&gt;SAP&lt;br&gt;CARAB – REPOSITÓRIO DAS VENDAS&lt;/font&gt;&lt;/span&gt;&lt;/p&gt;&lt;p style=&quot;language:pt-BR;margin-top:0pt;margin-bottom:0pt;margin-left:0in;&lt;br/&gt;text-align:left;direction:ltr;unicode-bidi:embed;mso-line-break-override:none;&lt;br/&gt;word-break:normal;punctuation-wrap:hanging&quot;&gt;&lt;/p&gt;&lt;p style=&quot;language:pt-BR;margin-top:0pt;margin-bottom:0pt;margin-left:0in;&lt;br/&gt;text-align:left;direction:ltr;unicode-bidi:embed;mso-line-break-override:none;&lt;br/&gt;word-break:normal;punctuation-wrap:hanging&quot;&gt;&lt;span style=&quot;font-family: Aptos;&quot;&gt;&lt;font size=&quot;3&quot;&gt;TRANSAÇÕES: &lt;/font&gt;&lt;/span&gt;&lt;/p&gt;&lt;p style=&quot;language:pt-BR;margin-top:0pt;margin-bottom:0pt;margin-left:0in;&lt;br/&gt;text-align:left;direction:ltr;unicode-bidi:embed;mso-line-break-override:none;&lt;br/&gt;word-break:normal;punctuation-wrap:hanging&quot;&gt;&lt;span style=&quot;font-family: Aptos;&quot;&gt;&lt;font size=&quot;3&quot;&gt;&lt;br&gt;&lt;/font&gt;&lt;/span&gt;&lt;/p&gt;&lt;p style=&quot;language:pt-BR;margin-top:0pt;margin-bottom:0pt;margin-left:0in;&lt;br/&gt;text-align:left;direction:ltr;unicode-bidi:embed;mso-line-break-override:none;&lt;br/&gt;word-break:normal;punctuation-wrap:hanging&quot;&gt;&lt;/p&gt;&lt;p style=&quot;language:pt-BR;margin-top:0pt;margin-bottom:0pt;margin-left:0in;&lt;br/&gt;text-align:left;direction:ltr;unicode-bidi:embed;mso-line-break-override:none;&lt;br/&gt;word-break:normal;punctuation-wrap:hanging&quot;&gt;&lt;span style=&quot;font-family: Aptos;&quot;&gt;&lt;font size=&quot;3&quot;&gt;&lt;b&gt;/N/POSDW/MON0:&lt;/b&gt; VISUALIZAR AS&lt;br&gt;TRANSAÇÕES(CUPOM FISCAL, ABERTURA DE CAIXA, RECARGA DE TELEFONE, ETC) NO&lt;br&gt;DETALHE&lt;/font&gt;&lt;/span&gt;&lt;/p&gt;&lt;p style=&quot;language:pt-BR;margin-top:0pt;margin-bottom:0pt;margin-left:0in;&lt;br/&gt;text-align:left;direction:ltr;unicode-bidi:embed;mso-line-break-override:none;&lt;br/&gt;word-break:normal;punctuation-wrap:hanging&quot;&gt;&lt;/p&gt;&lt;p style=&quot;language:pt-BR;margin-top:0pt;margin-bottom:0pt;margin-left:0in;&lt;br/&gt;text-align:left;direction:ltr;unicode-bidi:embed;mso-line-break-override:none;&lt;br/&gt;word-break:normal;punctuation-wrap:hanging&quot;&gt;&lt;br&gt;&lt;/p&gt;&lt;p style=&quot;language:pt-BR;margin-top:0pt;margin-bottom:0pt;margin-left:0in;&lt;br/&gt;text-align:left;direction:ltr;unicode-bidi:embed;mso-line-break-override:none;&lt;br/&gt;word-break:normal;punctuation-wrap:hanging&quot;&gt;&lt;span style=&quot;font-family: Aptos;&quot;&gt;&lt;font size=&quot;3&quot; style=&quot;&quot;&gt;&lt;b&gt;/N/POSDW/QMON:&lt;/b&gt; MONITOR DA FILA DE ENTRADA&lt;/font&gt;&lt;/span&gt;&lt;/p&gt;" style="rounded=1;whiteSpace=wrap;html=1;fillColor=#dae8fc;strokeColor=#6c8ebf;align=left;" vertex="1" parent="1">
          <mxGeometry x="2420" width="450" height="260" as="geometry" />
        </mxCell>
        <mxCell id="hONxpYcpvomNpsaaPsFR-24" value="" style="shape=flexArrow;endArrow=classic;html=1;rounded=1;fillColor=#e51400;strokeColor=#B20000;" edge="1" parent="1">
          <mxGeometry width="50" height="50" relative="1" as="geometry">
            <mxPoint x="2193" y="120" as="sourcePoint" />
            <mxPoint x="2420" y="120" as="targetPoint" />
          </mxGeometry>
        </mxCell>
        <mxCell id="hONxpYcpvomNpsaaPsFR-25" value="&lt;p style=&quot;margin-top: 0pt; margin-bottom: 0pt; margin-left: 0in; direction: ltr; unicode-bidi: embed; word-break: normal;&quot;&gt;&lt;span style=&quot;font-family: Aptos; font-size: 14px;&quot;&gt;&lt;font style=&quot;font-size: 14px;&quot;&gt;NO PROCESSO DE CRIAÇÃO DE NOTA, O ECC&lt;br&gt;COMUNICA COM O CARAB PARA REALIZAR ALGUMAS VALIDAÇÕES. CASO O DOC JÁ EXISTA NO&lt;br&gt;CARAB, ELE IRÁ RETORNAR AO ECC PARA ABORTAR ESSA VENDA.&lt;/font&gt;&lt;/span&gt;&lt;/p&gt;" style="rounded=1;whiteSpace=wrap;html=1;fillColor=#f0a30a;strokeColor=#BD7000;fontColor=#000000;align=left;" vertex="1" parent="1">
          <mxGeometry x="2220" y="140" width="180" height="260" as="geometry" />
        </mxCell>
        <mxCell id="hONxpYcpvomNpsaaPsFR-26" value="" style="shape=flexArrow;endArrow=classic;html=1;rounded=1;fillColor=#e51400;strokeColor=#B20000;exitX=0;exitY=0.25;exitDx=0;exitDy=0;entryX=1;entryY=0.25;entryDx=0;entryDy=0;" edge="1" parent="1" source="hONxpYcpvomNpsaaPsFR-23" target="hONxpYcpvomNpsaaPsFR-21">
          <mxGeometry width="50" height="50" relative="1" as="geometry">
            <mxPoint x="2363" y="-10" as="sourcePoint" />
            <mxPoint x="2250" y="180" as="targetPoint" />
          </mxGeometry>
        </mxCell>
      </root>
    </mxGraphModel>
  </diagram>
</mxfile>
